<svg xmlns="http://www.w3.org/2000/svg" xmlns:xlink="http://www.w3.org/1999/xlink" width="180" zoomAndPan="magnify" viewBox="0 0 135 89.999999" height="120" preserveAspectRatio="xMidYMid meet" version="1.0"><defs><clipPath id="f081ea54fa"><path d="M 10.449219 6 L 116 6 L 116 88 L 10.449219 88 Z M 10.449219 6 " clip-rule="nonzero"/></clipPath><clipPath id="5595a6d168"><path d="M 35 0 L 124.449219 0 L 124.449219 47 L 35 47 Z M 35 0 " clip-rule="nonzero"/></clipPath></defs><g clip-path="url(#f081ea54fa)"><path fill="#dda85a" d="M 111.695312 50.265625 C 109.847656 49.371094 107.226562 47.394531 101.929688 43.359375 C 96.953125 39.566406 90.140625 34.375 86.867188 32.855469 C 80.855469 30.0625 71.792969 25.203125 68.636719 23.5 C 63.789062 23.585938 58.71875 23.695312 55.917969 23.769531 C 55.8125 23.96875 55.710938 24.164062 55.621094 24.34375 C 53.585938 28.316406 50.511719 34.316406 45.433594 36.347656 C 43.695312 37.042969 41.582031 37.425781 39.484375 37.425781 C 36.15625 37.425781 33.648438 36.429688 32.238281 34.550781 C 31.265625 33.25 30.894531 31.644531 31.191406 30.058594 C 31.640625 25.664062 32.839844 16.953125 35.574219 11.195312 C 33.140625 10.078125 29.285156 8.128906 26.265625 6.582031 C 23.742188 5.289062 22.03125 6.574219 22.03125 6.574219 C 20.800781 7.265625 20.210938 8.859375 20.210938 8.859375 L 11.527344 33.667969 C 11.527344 33.667969 10.734375 36.199219 10.925781 37.5 C 11.074219 38.523438 11.308594 39.585938 13.28125 41.027344 C 15.65625 42.757812 18.691406 45.1875 20.527344 47.488281 C 21.925781 49.238281 22.269531 51.496094 22.941406 53.976562 C 24.738281 51.871094 27.21875 50.371094 30.109375 50.371094 C 30.707031 50.371094 31.308594 50.4375 31.890625 50.570312 C 34.945312 51.265625 37.117188 53.5 38.300781 56.214844 C 39.339844 55.84375 40.414062 55.621094 41.484375 55.621094 C 43.007812 55.621094 44.496094 56.03125 45.792969 56.796875 C 47.609375 57.871094 48.8125 59.492188 49.441406 61.421875 C 50.042969 61.296875 50.65625 61.210938 51.28125 61.210938 C 52.964844 61.210938 54.652344 61.691406 56.160156 62.601562 C 59.023438 64.339844 60.308594 67.503906 59.996094 71.457031 C 61.390625 71.527344 62.695312 71.886719 63.785156 72.550781 C 67.523438 74.832031 68.429688 80.667969 67.390625 85.007812 L 67.332031 85.261719 L 67.25 85.488281 C 67.867188 86.027344 68.496094 86.550781 68.945312 86.707031 C 76.515625 89.925781 80.683594 83.265625 79.667969 79.992188 C 82.316406 81.886719 87.707031 80.949219 90.269531 78.289062 C 92.832031 75.628906 91.585938 70.957031 91.585938 70.957031 C 91.585938 70.957031 98.644531 74.992188 103.757812 69.964844 C 107.078125 66.699219 104.441406 62.640625 104.441406 62.640625 C 104.441406 62.640625 111.132812 65.332031 114.269531 60.875 C 117.246094 56.660156 115.367188 53.378906 111.695312 50.265625 Z M 111.695312 50.265625 " fill-opacity="1" fill-rule="nonzero"/></g><path fill="#dda85a" d="M 59.59375 87.382812 C 58.746094 87.320312 57.90625 87.054688 57.140625 86.558594 C 54.730469 84.992188 54.183594 82.199219 55.746094 79.785156 L 56.191406 78.964844 C 57.757812 76.550781 61.460938 75.566406 63.207031 76.625 C 64.660156 77.511719 65.359375 80.988281 64.660156 83.898438 L 64.484375 84.394531 C 62.886719 87.292969 61.425781 87.519531 59.59375 87.382812 Z M 59.59375 87.382812 " fill-opacity="1" fill-rule="nonzero"/><g clip-path="url(#5595a6d168)"><path fill="#dda85a" d="M 35.910156 30.808594 C 35.910156 30.808594 37.5625 14.1875 41.640625 10.566406 C 45.71875 6.949219 48.917969 5.898438 54.460938 4.957031 C 60.003906 4.019531 72.015625 -0.03125 76.160156 1.175781 C 80.300781 2.382812 87.179688 4.253906 91.28125 5.058594 C 95.390625 5.871094 100.257812 8.902344 102.695312 9.070312 C 104.074219 9.160156 107.460938 7.539062 110.195312 6.242188 C 111.589844 5.582031 112.828125 6.027344 113.695312 6.605469 C 115.050781 7.507812 115.449219 9.125 115.449219 9.125 L 123.777344 35.039062 C 123.777344 35.039062 124.210938 36.484375 124.058594 37.601562 C 123.941406 38.453125 123.675781 39.421875 122.035156 40.496094 C 119.101562 42.425781 114.925781 45.261719 114.488281 46.082031 C 113.804688 47.351562 96.050781 31.855469 88.878906 28.527344 C 81.710938 25.195312 69.804688 18.703125 69.804688 18.703125 C 69.804688 18.703125 54.535156 18.980469 53.339844 19.09375 C 52.140625 19.210938 48.871094 29.835938 43.664062 31.914062 C 40.59375 33.144531 35.304688 32.878906 35.910156 30.808594 Z M 35.910156 30.808594 " fill-opacity="1" fill-rule="nonzero"/></g><path fill="#dda85a" d="M 29.164062 68.3125 C 28.902344 68.292969 28.644531 68.257812 28.386719 68.195312 C 25.582031 67.558594 23.824219 64.773438 24.457031 61.964844 L 24.761719 60.640625 C 25.394531 57.832031 28.027344 54.582031 30.832031 55.222656 C 33.632812 55.863281 35.054688 59.777344 34.417969 62.585938 L 34.132812 64.449219 C 33.554688 66.992188 31.691406 68.5 29.164062 68.3125 Z M 29.164062 68.3125 " fill-opacity="1" fill-rule="nonzero"/><path fill="#dda85a" d="M 37.867188 75.289062 C 37.089844 75.230469 36.546875 75.273438 35.828125 74.847656 C 33.355469 73.382812 32.300781 69.917969 33.769531 67.441406 L 36.199219 63.84375 C 37.667969 61.363281 40.886719 59.4375 43.363281 60.902344 C 45.839844 62.367188 45.394531 65.816406 44.285156 68.386719 L 42.332031 72.519531 C 41.292969 74.277344 39.773438 75.425781 37.867188 75.289062 Z M 37.867188 75.289062 " fill-opacity="1" fill-rule="nonzero"/><path fill="#dda85a" d="M 49.757812 81.144531 C 48.960938 81.082031 48.167969 80.84375 47.4375 80.402344 C 44.980469 78.910156 44.195312 75.710938 45.6875 73.25 L 48.910156 68.644531 C 50.402344 66.1875 53.132812 65.195312 55.589844 66.683594 C 58.046875 68.171875 57.226562 72.417969 56.179688 75.152344 L 54.589844 78.648438 C 53.542969 80.378906 51.644531 81.277344 49.757812 81.144531 Z M 49.757812 81.144531 " fill-opacity="1" fill-rule="nonzero"/></svg>